<svg xmlns="http://www.w3.org/2000/svg" width="100" height="20"><path fill="oklch(92.9% 0.013 255.508)" d="M21.184 20l1.088-.402 1.768-.662C33.64 15.348 39.647 14 50 14c10.271 0 15.362 1.222 24.629 4.928L77.379 20h6.225c-2.511-.731-5.139-1.691-8.233-2.928C65.888 13.278 60.562 12 50 12c-10.626 0-16.855 1.397-26.66 5.063l-1.766.661c-2.475.923-4.661 1.675-6.724 2.275h6.335 0zm0-20C13.258 2.892 8.077 4 0 4h0V2c5.744 0 9.951-.574 14.849-2h6.335 0zm56.195 0C85.239 2.966 90.502 4 100 4V2c-6.842 0-11.386-.542-16.396-2h-6.225 0zM0 14c8.441 0 13.718-1.21 22.272-4.402l1.768-.662C33.64 5.348 39.647 4 50 4c10.271 0 15.362 1.222 24.629 4.928C84.112 12.722 89.438 14 100 14v-2c-10.271 0-15.362-1.222-24.629-4.928C65.888 3.278 60.562 2 50 2 39.374 2 33.145 3.397 23.34 7.063l-1.766.661C13.224 10.84 8.164 12 0 12v2h0 0z" fill-rule="evenodd"/></svg>
